<svg width="807" height="807" viewBox="0 0 807 807" fill="none" xmlns="http://www.w3.org/2000/svg">
<path d="M517.459 160.182C536.946 160.406 556.434 164.598 574.091 172.915C586.622 178.818 598.002 186.551 607.111 196.333C625.328 215.902 632.524 244.543 620.09 266.041C609.711 283.982 586.876 296.841 586.607 317.495C586.285 341.555 616.817 357.591 643.426 362.567C670.042 367.536 699.886 368.493 719.866 385.641C737.06 400.399 741.648 424.041 735.932 443.828C730.215 463.614 715.749 480.09 699.639 494.168C659.274 529.444 607.469 552.638 554.372 570.93C442.176 609.569 320.484 628.414 197.909 626.112C167.303 625.537 133.125 622.234 111.665 601.596C90.0253 580.793 89.3304 547.826 103.49 523.997C117.65 500.168 143.713 484.155 170.935 472.491C198.156 460.827 227.357 452.675 253.854 439.845C273.857 430.161 294.383 411.645 285.88 391.791C279.842 377.691 262.111 370.884 246.501 365.153C224.451 357.053 202.49 347.623 184.467 333.373C166.444 319.124 152.605 299.36 151.23 278.4C149.945 258.83 159.651 240.165 173.983 226.154C188.322 212.144 206.996 202.266 226.132 193.829C301.721 160.526 464.847 159.562 517.459 160.182Z" fill="#F7F7F7"/>
<path d="M290.139 338.118L281.703 335.503C281.703 335.503 267.505 324.294 262.275 325.042C257.044 325.789 246.583 327.283 246.583 327.283C246.583 327.283 254.055 340.733 256.297 343.722C265.264 342.975 278.714 344.469 278.714 344.469L296.647 346.711L294.405 337.744L290.139 338.118Z" fill="#DBA17B"/>
<path d="M750.166 767.853H71.7782C67.2351 767.853 63.5139 764.132 63.5139 759.589V716.623C63.5139 712.08 67.2351 708.359 71.7782 708.359H750.174C754.717 708.359 758.438 712.08 758.438 716.623V759.589C758.431 764.132 754.709 767.853 750.166 767.853Z" fill="#F2F2F2"/>
<path d="M463.069 719.448H694.274C713.687 719.448 729.423 703.711 729.423 684.299V208.766C729.423 189.354 713.687 173.617 694.274 173.617H463.069C443.656 173.617 427.919 189.354 427.919 208.766V684.291C427.919 703.711 443.656 719.448 463.069 719.448Z" fill="#FFB251"/>
<path d="M465.99 702.815H691.36C703.196 702.815 712.79 693.22 712.79 681.384V212.727C712.79 200.891 703.196 191.296 691.36 191.296H465.99C454.154 191.296 444.56 200.891 444.56 212.727V681.377C444.552 693.213 454.154 702.815 465.99 702.815Z" fill="white"/>
<path d="M664.445 189.212L650.412 207.07C644.808 214.206 636.566 218.316 627.891 218.316H530.498C521.823 218.316 513.581 214.199 507.977 207.07L493.944 189.212H664.445Z" fill="#FFB251"/>
<path d="M399.764 268.253H777.858C782.79 268.253 786.825 272.288 786.825 277.219V359.414C786.825 364.346 782.79 368.381 777.858 368.381H399.764C394.832 368.381 390.797 364.346 390.797 359.414V277.219C390.797 272.288 394.832 268.253 399.764 268.253Z" stroke="#FF9918" stroke-miterlimit="10"/>
<path d="M389.303 259.286H767.397C772.329 259.286 776.364 263.321 776.364 268.253V350.447C776.364 355.379 772.329 359.414 767.397 359.414H389.303C384.371 359.414 380.336 355.379 380.336 350.447V268.253C380.336 263.321 384.371 259.286 389.303 259.286Z" fill="#FF9918"/>
<path d="M418.003 377.788C455.801 377.788 486.442 347.147 486.442 309.35C486.442 271.553 455.801 240.912 418.003 240.912C380.206 240.912 349.565 271.553 349.565 309.35C349.565 347.147 380.206 377.788 418.003 377.788Z" fill="#C8C8C8" stroke="white" stroke-width="8" stroke-miterlimit="10"/>
<path d="M755.068 289.922H506.99C503.501 289.922 500.639 287.068 500.639 283.571C500.639 280.074 503.501 277.219 506.99 277.219H755.068C758.558 277.219 761.419 280.074 761.419 283.571C761.419 287.068 758.558 289.922 755.068 289.922Z" fill="white"/>
<path d="M681.407 316.075H506.99C503.501 316.075 500.639 313.221 500.639 309.724C500.639 306.227 503.501 303.372 506.99 303.372H681.407C684.896 303.372 687.758 306.227 687.758 309.724C687.758 313.221 684.896 316.075 681.407 316.075Z" stroke="white" stroke-miterlimit="10"/>
<path d="M681.407 342.228H506.99C503.501 342.228 500.639 339.373 500.639 335.876C500.639 332.379 503.501 329.525 506.99 329.525H681.407C684.896 329.525 687.758 332.379 687.758 335.876C687.758 339.373 684.896 342.228 681.407 342.228Z" stroke="white" stroke-miterlimit="10"/>
<path d="M465.841 390.424H691.502C696.433 390.424 700.468 394.459 700.468 399.39V448.707C700.468 453.639 696.433 457.674 691.502 457.674H465.841C460.909 457.674 456.874 453.639 456.874 448.707V399.39C456.874 394.459 460.909 390.424 465.841 390.424Z" fill="#C8C8C8"/>
<path d="M491.672 447.586C504.465 447.586 514.836 437.215 514.836 424.422C514.836 411.629 504.465 401.258 491.672 401.258C478.879 401.258 468.508 411.629 468.508 424.422C468.508 437.215 478.879 447.586 491.672 447.586Z" fill="#FF9918"/>
<path d="M687.818 414.708H528.66C526.396 414.708 524.55 412.863 524.55 410.599C524.55 408.334 526.396 406.489 528.66 406.489H687.818C690.082 406.489 691.928 408.334 691.928 410.599C691.928 412.863 690.082 414.708 687.818 414.708Z" fill="white"/>
<path d="M614.381 428.906H528.66C526.396 428.906 524.55 427.06 524.55 424.796C524.55 422.532 526.396 420.686 528.66 420.686H614.381C616.645 420.686 618.491 422.532 618.491 424.796C618.491 427.06 616.638 428.906 614.381 428.906Z" stroke="white" stroke-miterlimit="10"/>
<path d="M614.59 443.476H528.869C526.605 443.476 524.759 441.631 524.759 439.367C524.759 437.103 526.605 435.257 528.869 435.257H614.59C616.854 435.257 618.7 437.103 618.7 439.367C618.7 441.631 616.854 443.476 614.59 443.476Z" stroke="white" stroke-miterlimit="10"/>
<path d="M465.841 481.211H691.502C696.433 481.211 700.468 485.246 700.468 490.178V539.494C700.468 544.426 696.433 548.461 691.502 548.461H465.841C460.909 548.461 456.874 544.426 456.874 539.494V490.178C456.874 485.246 460.909 481.211 465.841 481.211Z" fill="#C8C8C8"/>
<path d="M491.672 538.374C504.465 538.374 514.836 528.003 514.836 515.21C514.836 502.417 504.465 492.046 491.672 492.046C478.879 492.046 468.508 502.417 468.508 515.21C468.508 528.003 478.879 538.374 491.672 538.374Z" fill="#FF9918"/>
<path d="M687.818 505.496H528.66C526.396 505.496 524.55 503.65 524.55 501.386C524.55 499.122 526.396 497.276 528.66 497.276H687.818C690.082 497.276 691.928 499.122 691.928 501.386C691.928 503.65 690.082 505.496 687.818 505.496Z" fill="white"/>
<path d="M614.381 519.693H528.66C526.396 519.693 524.55 517.847 524.55 515.583C524.55 513.319 526.396 511.474 528.66 511.474H614.381C616.645 511.474 618.491 513.319 618.491 515.583C618.491 517.847 616.638 519.693 614.381 519.693Z" stroke="white" stroke-miterlimit="10"/>
<path d="M614.59 534.264H528.869C526.605 534.264 524.759 532.418 524.759 530.154C524.759 527.89 526.605 526.044 528.869 526.044H614.59C616.854 526.044 618.7 527.89 618.7 530.154C618.7 532.418 616.854 534.264 614.59 534.264Z" stroke="white" stroke-miterlimit="10"/>
<path d="M465.841 571.999H691.502C696.433 571.999 700.468 576.034 700.468 580.965V630.282C700.468 635.214 696.433 639.249 691.502 639.249H465.841C460.909 639.249 456.874 635.214 456.874 630.282V580.965C456.874 576.034 460.909 571.999 465.841 571.999Z" fill="#C8C8C8"/>
<path d="M491.672 629.161C504.465 629.161 514.836 618.79 514.836 605.997C514.836 593.204 504.465 582.833 491.672 582.833C478.879 582.833 468.508 593.204 468.508 605.997C468.508 618.79 478.879 629.161 491.672 629.161Z" fill="#FF9918"/>
<path d="M687.818 596.283H528.66C526.396 596.283 524.55 594.438 524.55 592.174C524.55 589.91 526.396 588.064 528.66 588.064H687.818C690.082 588.064 691.928 589.91 691.928 592.174C691.928 594.438 690.082 596.283 687.818 596.283Z" fill="white"/>
<path d="M614.381 610.481H528.66C526.396 610.481 524.55 608.635 524.55 606.371C524.55 604.107 526.396 602.261 528.66 602.261H614.381C616.645 602.261 618.491 604.107 618.491 606.371C618.491 608.635 616.638 610.481 614.381 610.481Z" stroke="white" stroke-miterlimit="10"/>
<path d="M614.59 625.051H528.869C526.605 625.051 524.759 623.206 524.759 620.942C524.759 618.678 526.605 616.832 528.869 616.832H614.59C616.854 616.832 618.7 618.678 618.7 620.942C618.7 623.206 616.854 625.051 614.59 625.051Z" stroke="white" stroke-miterlimit="10"/>
<path d="M495.035 685.576H662.412C664.467 685.576 666.149 687.258 666.149 689.313C666.149 691.367 664.467 693.049 662.412 693.049H495.035C492.98 693.049 491.299 691.367 491.299 689.313C491.299 687.258 492.98 685.576 495.035 685.576Z" fill="#FFB251"/>
<mask id="mask0_118_4" style="mask-type:luminance" maskUnits="userSpaceOnUse" x="352" y="243" width="132" height="133">
<path d="M418.003 375.023C454.274 375.023 483.677 345.62 483.677 309.35C483.677 273.08 454.274 243.677 418.003 243.677C381.733 243.677 352.33 273.08 352.33 309.35C352.33 345.62 381.733 375.023 418.003 375.023Z" fill="white"/>
</mask>
<g mask="url(#mask0_118_4)">
<path d="M412.28 335.01C427.419 333.964 454.565 334.225 460.304 369.987C414.103 385.387 386.702 379.641 371.564 366.856C374.172 341.794 387.741 338.402 412.28 335.01Z" fill="#E49232"/>
<path d="M390.61 276.801C388.742 270.539 391.485 263.523 396.297 259.107C401.109 254.691 407.662 252.584 414.148 251.851C419.251 251.276 424.527 251.493 429.376 253.181C434.226 254.87 438.642 258.135 441.1 262.649C443.798 267.603 443.94 273.491 444.336 279.117C444.732 284.744 445.621 290.729 449.372 294.944C452.376 298.321 456.762 300.04 460.745 302.184C466.625 305.352 471.893 309.664 476.16 314.812C479.567 318.929 482.384 323.689 483.333 328.942C484.282 334.203 483.161 340.001 479.545 343.931C476.205 347.57 471.236 349.207 466.401 350.238C461.469 351.292 456.261 351.852 451.449 350.358C446.114 348.699 441.795 344.641 438.649 340.016C435.503 335.398 433.374 330.175 431.065 325.087C428.098 318.556 424.721 312.062 419.61 307.034C414.193 301.706 407.176 298.351 401.169 293.703C395.161 289.055 389.878 282.248 390.416 274.671" fill="#3A3A3A"/>
<path d="M383.198 288.189C384.61 275.239 385.552 273.125 396.85 266.997C405.742 262.178 456.269 268.529 426.798 309.791C401.983 303.783 383.198 288.189 383.198 288.189Z" fill="#3A3A3A"/>
<path d="M432.491 302.66C434.095 299.61 433.995 296.401 432.267 295.493C430.539 294.584 427.839 296.32 426.234 299.37C424.63 302.42 424.731 305.629 426.458 306.537C428.186 307.446 430.887 305.71 432.491 302.66Z" fill="#DBA17B"/>
<path d="M401.796 318.795C402.977 324.444 405.092 334.33 401.796 339.747C404.389 347.279 409.568 351.284 409.568 351.284L427.224 340.689C427.224 340.689 414.985 321.149 419.453 313.378C418.041 309.612 401.796 318.795 401.796 318.795Z" fill="#DBA17B"/>
<path d="M383.669 297.604C383.669 312.167 390.879 324.444 402.977 324.444C415.067 324.444 429.578 312.406 429.578 297.843C429.578 283.279 417.652 271.242 405.562 271.242C393.472 271.242 383.669 283.04 383.669 297.604Z" fill="#DBA17B"/>
<path d="M428.046 311.965C429.932 311.965 431.461 310.436 431.461 308.55C431.461 306.665 429.932 305.136 428.046 305.136C426.16 305.136 424.631 306.665 424.631 308.55C424.631 310.436 426.16 311.965 428.046 311.965Z" fill="#FFBE55"/>
<path d="M388.787 276.278C390.095 280.978 408.364 301.071 436.027 302.378C433.419 278.109 427.411 262.746 412.407 266.25C397.403 269.755 388.787 276.278 388.787 276.278Z" fill="#3A3A3A"/>
</g>
<path d="M389.654 339.769C373.753 344.611 302.543 336.31 283.877 333.545C281.8 341.839 284.572 348.064 284.572 348.064C284.572 348.064 347.458 359.414 385.567 366.139C417.697 372.117 389.654 339.769 389.654 339.769Z" fill="#E49232"/>
<path d="M238.364 365.392C258.585 365.392 274.978 348.999 274.978 328.778C274.978 308.556 258.585 292.164 238.364 292.164C218.143 292.164 201.75 308.556 201.75 328.778C201.75 348.999 218.143 365.392 238.364 365.392Z" fill="black"/>
<path d="M223.053 324.033H233.358V312.406C233.358 309.761 235.502 307.624 238.14 307.624H238.581C241.226 307.624 243.363 309.768 243.363 312.406V324.033H253.667C256.312 324.033 258.449 326.177 258.449 328.815C258.449 331.46 256.305 333.597 253.667 333.597H243.37V345.149C243.37 347.795 241.226 349.932 238.588 349.932H238.147C235.502 349.932 233.365 347.787 233.365 345.149V333.597H223.061C220.416 333.597 218.279 331.453 218.279 328.815C218.271 326.17 220.416 324.033 223.053 324.033Z" fill="white"/>
<path d="M275.538 331.042C272.736 328.778 266.758 325.789 263.769 324.294C262.275 325.042 271.242 336.25 274.978 336.25C278.714 335.503 275.538 331.042 275.538 331.042Z" fill="#DBA17B"/>
<path d="M506.99 449.828C511.323 449.828 514.836 446.315 514.836 441.982C514.836 437.649 511.323 434.136 506.99 434.136C502.657 434.136 499.145 437.649 499.145 441.982C499.145 446.315 502.657 449.828 506.99 449.828Z" fill="#3A3A3A"/>
<path d="M503.71 440.966H505.922V438.47C505.922 437.902 506.378 437.446 506.945 437.446H507.043C507.61 437.446 508.066 437.902 508.066 438.47V440.966H510.271C510.838 440.966 511.294 441.422 511.294 441.989C511.294 442.557 510.838 443.013 510.271 443.013H508.066V445.486C508.066 446.054 507.61 446.51 507.043 446.51H506.945C506.378 446.51 505.922 446.054 505.922 445.486V443.013H503.71C503.142 443.013 502.686 442.557 502.686 441.989C502.686 441.422 503.142 440.966 503.71 440.966Z" fill="white"/>
<path d="M506.99 540.989C511.323 540.989 514.836 537.476 514.836 533.143C514.836 528.81 511.323 525.297 506.99 525.297C502.657 525.297 499.145 528.81 499.145 533.143C499.145 537.476 502.657 540.989 506.99 540.989Z" fill="#3A3A3A"/>
<path d="M503.71 532.127H505.922V529.631C505.922 529.063 506.378 528.607 506.945 528.607H507.043C507.61 528.607 508.066 529.063 508.066 529.631V532.127H510.271C510.838 532.127 511.294 532.583 511.294 533.151C511.294 533.718 510.838 534.174 510.271 534.174H508.066V536.648C508.066 537.215 507.61 537.671 507.043 537.671H506.945C506.378 537.671 505.922 537.215 505.922 536.648V534.174H503.71C503.142 534.174 502.686 533.718 502.686 533.151C502.686 532.583 503.142 532.127 503.71 532.127Z" fill="white"/>
<path d="M506.99 632.15C511.323 632.15 514.836 628.637 514.836 624.304C514.836 619.971 511.323 616.458 506.99 616.458C502.657 616.458 499.145 619.971 499.145 624.304C499.145 628.637 502.657 632.15 506.99 632.15Z" fill="#3A3A3A"/>
<path d="M503.71 623.288H505.922V620.792C505.922 620.224 506.378 619.768 506.945 619.768H507.043C507.61 619.768 508.066 620.224 508.066 620.792V623.288H510.271C510.838 623.288 511.294 623.744 511.294 624.312C511.294 624.88 510.838 625.335 510.271 625.335H508.066V627.809C508.066 628.377 507.61 628.832 507.043 628.832H506.945C506.378 628.832 505.922 628.377 505.922 627.809V625.335H503.71C503.142 625.335 502.686 624.88 502.686 624.312C502.686 623.744 503.142 623.288 503.71 623.288Z" fill="white"/>
<path d="M174.94 713.859L205.89 730.492H160.257V713.552L174.222 709.204L174.94 713.859Z" fill="#3A3A3A"/>
<path d="M170.277 505.07C170.277 505.07 184.22 605.803 183.734 612.162C183.256 618.521 174.94 713.866 174.94 713.866H160.302C160.302 713.866 148.645 642.903 156.82 617.729C150.573 584.388 137.594 512.759 137.594 512.759L170.277 505.07Z" fill="#3A3A3A"/>
<path d="M96.4365 713.859L125.72 730.798H80.0798V713.859L94.9271 710.033L96.4365 713.859Z" fill="#3A3A3A"/>
<path d="M162.551 511.324L147.024 528.622C147.024 528.622 137.758 610.271 134.216 617.729C130.674 625.186 96.4366 713.866 96.4366 713.866H80.0874C80.0874 713.866 93.8811 624.476 105.127 613.851C103.595 587.384 106.659 496.948 106.659 496.948L162.551 511.324Z" fill="#010000"/>
<path d="M215.155 464.137L219.736 464.967C219.736 464.967 221.193 461.634 225.773 462.052C230.354 462.471 233.268 464.967 233.268 464.967C233.268 464.967 227.439 476.354 225.773 478.05C224.107 479.747 219.115 473.941 219.115 473.941L212.659 472.117L215.155 464.137Z" fill="#FFE3CA"/>
<path d="M161.258 384.752C161.258 384.752 182.785 459.594 217.479 462.351C214.998 471.161 213.9 473.918 213.9 473.918C213.9 473.918 189.294 476.123 161.258 440.6C159.106 401.497 161.258 384.752 161.258 384.752Z" fill="#FF9918"/>
<path d="M178.795 461.38C178.795 461.38 184.609 454.67 188.188 453.773C191.767 452.876 201.832 449.521 201.832 449.521C201.832 449.521 201.16 451.091 199.822 452.204C198.477 453.325 193.336 456.456 193.336 456.456C193.336 456.456 193.785 465.624 193.112 466.745C192.44 467.866 176.113 472.11 176.113 472.11L178.795 461.38Z" fill="#FFE3CA"/>
<path d="M204.433 424.99H243.475L247.906 426.716L219.332 496.656L177.944 498.382L176.897 496.656L204.433 424.99Z" fill="#E8A442"/>
<path d="M205.479 426.716H247.906L220.378 498.382H177.944L205.479 426.716Z" fill="#FFBE55"/>
<path d="M218.539 466.007C220.294 461.732 220.248 457.662 218.435 456.917C216.622 456.173 213.728 459.035 211.972 463.31C210.216 467.586 210.263 471.655 212.076 472.4C213.889 473.145 216.783 470.282 218.539 466.007Z" fill="#F7F7F7"/>
<path d="M119.137 379.94C119.137 379.94 96.571 386.927 93.7764 388.795C90.9743 390.663 109.012 471.833 109.012 471.833L99.6794 504.487C104.342 508.843 138.864 527.815 174.94 507.595C171.831 486.755 161.258 384.752 161.258 384.752L119.137 379.94Z" fill="#E49232"/>
<path d="M161.348 325.886C163.403 331.513 163.679 342.482 158.329 342.482C152.433 337.961 161.348 325.886 161.348 325.886Z" fill="#3A3A3A"/>
<path d="M131.25 309.768C116.2 313.766 111.635 325.781 113.077 338.514C114.519 351.247 116.328 364.465 121.311 366.393C126.295 368.313 139.394 349.334 139.394 349.334L131.25 309.768Z" fill="#3A3A3A"/>
<path d="M139.394 368.224V385.985C137.407 393.143 127.812 394.436 123.994 388.062L119.137 379.94L121.312 354.901L139.394 368.224Z" fill="#FCD2B1"/>
<path d="M159.592 329.951C159.592 329.951 160.847 362.627 152.052 368.904C143.258 375.188 129.434 368.904 120.639 356.335C115.61 338.746 124.413 324.922 129.434 322.404C134.463 319.901 159.592 329.951 159.592 329.951Z" fill="#FFE3CA"/>
<path d="M159.659 330.93C171.076 328.95 170.905 314.872 167.139 308.588C162.11 312.361 155.826 314.872 155.826 314.872C155.826 314.872 160.854 312.361 159.599 308.588C154.57 309.843 133.207 306.077 125.668 312.361C118.128 318.645 121.894 331.214 125.668 332.469C129.434 333.724 159.659 330.93 159.659 330.93Z" fill="#3A3A3A"/>
<path d="M129.927 328.8L119.137 346.278C119.137 346.278 116.373 325.251 117 325.042C117.628 324.832 129.927 328.8 129.927 328.8Z" fill="#3A3A3A"/>
<path d="M120.467 345.202C118.637 342.355 115.304 343.483 114.93 344.425C114.026 346.756 115.872 355.2 121.229 356.933C124.211 353.742 120.467 345.202 120.467 345.202Z" fill="#FFE3CA"/>
<path d="M93.769 388.795C86.6928 397.418 82.7998 504.106 180.574 472.073C180.574 470.122 180.574 459.258 180.574 459.258C180.574 459.258 114.714 488.616 107.779 404.606C104.155 391.231 93.769 388.795 93.769 388.795Z" fill="#FF9918"/>
<path d="M236.75 455.963C236.75 455.963 228.538 455.731 227.694 456.702C226.849 457.674 223.659 470.444 224.936 471.841C226.214 473.238 233.051 473.515 233.051 473.515L238.797 457.487L236.75 455.963Z" fill="#FCD2B1"/>
<path d="M61.4366 264.741L64.4703 264.143C69.6038 263.127 74.5504 266.564 75.4022 271.72L82.2916 313.632C83.0986 318.563 79.8556 323.241 74.9539 324.212L74.6176 324.28C69.7158 325.251 64.9336 322.157 63.8053 317.285L54.2185 275.904C53.0304 270.816 56.3032 265.75 61.4366 264.741ZM76 332.932L76.9714 332.738C81.9852 331.744 86.8571 335.01 87.8509 340.023C88.8447 345.037 85.5794 349.909 80.5655 350.903L79.5941 351.097C74.5803 352.091 69.7084 348.826 68.7146 343.812C67.7208 338.798 70.9787 333.926 76 332.932Z" stroke="#FFBE55" stroke-miterlimit="10"/>
<path d="M64.2388 260.392L67.2725 259.794C72.4059 258.778 77.3525 262.215 78.2043 267.371L85.0937 309.283C85.9007 314.214 82.6578 318.892 77.756 319.863L77.4198 319.931C72.518 320.902 67.7358 317.809 66.6075 312.937L57.0206 271.555C55.84 266.467 59.1053 261.408 64.2388 260.392ZM78.8021 328.591L79.7735 328.397C84.7874 327.403 89.6593 330.668 90.6531 335.682C91.6469 340.696 88.3815 345.568 83.3677 346.562L82.3963 346.756C77.3824 347.75 72.5105 344.484 71.5167 339.47C70.5229 334.449 73.7883 329.585 78.8021 328.591Z" fill="#010000"/>
<path d="M715.973 738.681C727.182 738.681 731.911 729.73 733.78 720.233C735.879 709.517 734.34 698.115 734.34 698.115H697.614C697.614 698.115 697.554 698.548 697.479 699.325C696.792 706.065 694.58 738.681 715.973 738.681Z" fill="#FFB251"/>
<path d="M697.606 698.115C697.606 698.914 705.826 699.564 715.973 699.564C726.113 699.564 734.34 698.914 734.34 698.115C734.34 697.315 726.12 696.665 715.973 696.665C705.833 696.658 697.606 697.308 697.606 698.115Z" fill="#BCBCBC"/>
<path d="M666.246 596.291C666.246 596.291 685.614 625.761 697.233 643.747C708.852 661.733 711.901 665.469 713.283 671.275C714.666 677.088 715.913 698.526 715.913 698.526H716.773C716.773 698.526 716.474 680.323 715.428 674.196C714.412 668.278 715.502 666.149 716.332 659.924C717.161 653.7 718.267 643.739 711.976 636.82C705.684 629.901 707.343 623.124 705.131 618.558C702.919 613.992 685.763 608.456 683.551 603.756C681.325 599.056 671.641 596.149 666.246 596.291Z" fill="#E49232"/>
<path d="M666.246 596.291C666.246 596.291 672.335 603.21 676.483 605.564C680.63 607.918 682.572 605.84 685.748 611.512C688.931 617.183 689.051 619.671 691.965 622.578C694.879 625.485 698.339 625.619 698.615 631.986C698.892 638.352 697.233 643.747 697.233 643.747C697.233 643.747 667.486 597.808 666.246 596.291Z" fill="#FF9918"/>
<path d="M714.374 698.526H713.507C713.507 698.526 713.246 692.638 710.907 689.776C709.398 687.93 702.987 685.83 696.65 683.32C693.161 681.937 689.693 680.428 687.078 678.762C679.711 674.084 672.687 658.998 672.089 656.315C671.872 655.381 671.783 654.813 671.79 654.425V654.417C671.805 653.692 672.164 653.588 672.784 652.856C673.083 652.504 673.979 652.624 675.078 652.96C678.253 653.931 680.936 656.106 682.595 658.983C684.134 661.643 686.585 664.968 689.596 665.768C694.797 667.157 694.364 668.017 696.284 673.307C698.197 678.597 703.031 679.457 709.099 685.696C715.159 691.935 714.374 698.526 714.374 698.526Z" fill="#E49232"/>
<path d="M696.65 683.32C693.161 681.937 689.693 680.428 687.078 678.762C679.711 674.084 672.687 658.998 672.089 656.315C671.872 655.381 671.783 654.813 671.79 654.425C671.812 654.604 672.156 656.988 675.989 658.572C679.972 660.216 680.749 660.216 681.272 662.734C681.795 665.244 682.229 667.934 684.306 668.458C686.383 668.981 687.683 666.634 689.327 670.453C690.979 674.263 691.763 675.564 693.273 676.087C694.789 676.61 695.933 675.825 696.276 678.777C696.478 680.563 696.59 682.274 696.65 683.32Z" fill="#FF9918"/>
<path d="M720.741 698.526H721.772C721.772 698.526 723.782 662.046 726.554 658.654C728.34 656.465 734.235 652.549 741.737 649.575C745.87 647.939 749.979 646.153 753.073 644.18C761.8 638.636 770.117 620.777 770.827 617.594C771.081 616.488 771.193 615.816 771.186 615.352V615.337C771.171 614.478 770.745 614.351 770.012 613.492C769.661 613.073 768.593 613.215 767.3 613.611C763.534 614.762 760.358 617.333 758.393 620.74C756.57 623.893 753.663 627.831 750.099 628.78C743.942 630.424 744.45 631.448 742.178 637.709C739.914 643.971 734.183 644.995 727.002 652.385C719.821 659.782 720.741 698.526 720.741 698.526Z" fill="#E49232"/>
<path d="M741.738 649.575C745.87 647.939 749.979 646.153 753.073 644.18C761.8 638.636 770.117 620.777 770.827 617.594C771.081 616.488 771.193 615.816 771.186 615.352C771.163 615.562 770.752 618.386 766.209 620.269C761.494 622.212 760.568 622.212 759.955 625.193C759.342 628.167 758.819 631.35 756.361 631.971C753.895 632.583 752.356 629.819 750.413 634.332C748.463 638.845 747.529 640.384 745.735 641.005C743.942 641.617 742.582 640.698 742.178 644.188C741.939 646.317 741.805 648.335 741.738 649.575Z" fill="#FF9918"/>
<path d="M715.973 738.681C727.182 738.681 731.912 729.73 733.78 720.233C722.796 716.071 708.949 709.39 697.472 699.325C696.792 706.065 694.58 738.681 715.973 738.681Z" fill="#C8C8C8"/>
</svg>
